<svg xmlns="http://www.w3.org/2000/svg" xmlns:xlink="http://www.w3.org/1999/xlink" version="1.1" x="0px" y="0px" viewBox="0 0 512 640" enable-background="new 0 0 512 512" xml:space="preserve"><g><path d="M484.6,27.4H179.8c-14,0-25.4,11.4-25.4,25.4v66c0,5.6,4.5,10.2,10.2,10.2H195c5.6,0,10.2-4.5,10.2-10.2V78.2h254v203.2   h-40.6c-5.6,0-10.2,4.5-10.2,10.2V322c0,5.6,4.5,10.2,10.2,10.2h66c14,0,25.4-11.4,25.4-25.4v-254C510,38.8,498.6,27.4,484.6,27.4z   " fill="#ffffff"/><path d="M347.4,332.2H317c-5.6,0-10.2,4.5-10.2,10.2v91.5h-254V230.6H195c5.6,0,10.2-4.5,10.2-10.2V190c0-5.6-4.5-10.2-10.2-10.2   H27.4c-14,0-25.4,11.4-25.4,25.4v254c0,14,11.4,25.4,25.4,25.4h304.8c14,0,25.4-11.4,25.4-25.4V342.3   C357.6,336.7,353.1,332.2,347.4,332.2z" fill="#ffffff"/><path d="M372.8,154.4H266.1c-9.1,0-13.6,10.9-7.2,17.3l35.4,35.5L208,293.5c-4,4-4,10.4,0,14.4l21.5,21.5c4,4,10.4,4,14.4,0   l86.3-86.3l35.5,35.5c6.4,6.4,17.3,1.9,17.3-7.2V164.6C383,158.9,378.5,154.4,372.8,154.4z" fill="#ffffff"/></g><text x="0" y="527" fill="#ffffff" font-size="5px" font-weight="bold" font-family="'Helvetica Neue', Helvetica, Arial-Unicode, Arial, Sans-serif">Created by ProSymbols</text><text x="0" y="532" fill="#ffffff" font-size="5px" font-weight="bold" font-family="'Helvetica Neue', Helvetica, Arial-Unicode, Arial, Sans-serif">from the Noun Project</text></svg>